<svg xmlns="http://www.w3.org/2000/svg" version="1.1" xmlns:xlink="http://www.w3.org/1999/xlink" xmlns:svgjs="http://svgjs.dev/svgjs" width="1350" height="1350"><svg id="SvgjsSvg1043" data-name="Layer 3" xmlns="http://www.w3.org/2000/svg" viewBox="0 0 1350 1350" fill="hsl(142.1 76.2% 36.3%)">
  <g>
    <path d="M497.19,1325.1c-65.77,27.66-126.61-11.3-123.93-72.11,2.29-52.09,12.82-103.93,22-155.46,1.3-7.27,15.34-15.93,24.46-17.27,14.59-2.14,30,2.46,45,1.94,7.72-.27,15.28-5.43,22.9-8.38-4.37-7.09-7.34-15.87-13.4-20.94-15-12.51-31-23.81-47.27-34.66-15.22-10.17-19.71-23-16.84-41.05q25.53-160.6,49.42-321.46c3.51-23.93,14-32.17,37.64-27.59,28.77,5.57,57.82,10,86.93,13.19,7.41.81,15.53-4.75,23.32-7.37-4.2-7.12-6.73-16.59-12.89-21q-46.68-33.21-95.07-64c-16.6-10.53-22.69-23.41-18.3-42.56s6.13-38.69,11.11-57.53c12-45.6,56.94-74.92,100.5-58.65,99.86,37.29,198.7,77.55,296.53,119.9C930.52,528,941.3,584,915.89,628.8Q855.44,735.48,792.45,840.72c-49.13,81.91-23.59,70.37-118.3,53.43-17.49-3.12-34.82-7.66-52.44-9.26-7.38-.66-15.31,4.63-23,7.22,4.24,7.14,6.88,16.42,13,21,22,16.5,44.67,32.35,68.17,46.65,21.84,13.27,26.21,27.44,12.64,50.29-53.55,90.13-105.3,181.34-159.1,271.31C522,1300.52,504.75,1316.16,497.19,1325.1Z" transform="translate(0 -373.17 -31.84)"></path>
    <path d="M813.9,282.11q42.75-60.51,85.53-121c20.74-29.2,26-30,55.48-10,48.43,33,48.44,33,11.57,77.75C921.88,283,876.85,336.71,832.94,391.36c-10.71,13.32-20.18,16.81-35.84,9.19-24.63-12-59.68-15.81-72.47-35-11.78-17.67-.6-51.07,1.45-77.46,5.78-74.33,12.72-148.57,17.79-222.94,1.7-24.91,12-33.94,36.77-33.28,59.78,1.6,60.1,1.14,52.35,60Q820.69,185.45,808.3,279Z" transform="translate(0 -373.17 -31.84)"></path>
  </g>
</svg><style>@media (prefers-color-scheme: light) { :root { filter: none; } }
@media (prefers-color-scheme: dark) { :root { filter: none; } }
</style></svg>